<mxfile host="app.diagrams.net" modified="2024-02-07T16:00:49.555Z" agent="Mozilla/5.0 (Windows NT 10.0; Win64; x64) AppleWebKit/537.36 (KHTML, like Gecko) Chrome/120.0.0.0 Safari/537.36 OPR/106.0.0.0" etag="usE3e0lPhHKQaUBd_vpl" version="23.0.1" type="device">
  <diagram name="Page-1" id="sFEgxpl-5uTPSi8mS4-j">
    <mxGraphModel dx="1144" dy="636" grid="1" gridSize="10" guides="1" tooltips="1" connect="1" arrows="1" fold="1" page="1" pageScale="1" pageWidth="1100" pageHeight="850" math="0" shadow="0">
      <root>
        <mxCell id="0" />
        <mxCell id="1" parent="0" />
        <mxCell id="U0G8jVr2ddkJthSNcFyl-5" value="" style="rounded=0;whiteSpace=wrap;html=1;" vertex="1" parent="1">
          <mxGeometry x="80" y="40" width="890" height="600" as="geometry" />
        </mxCell>
        <mxCell id="TAtsZx1FGTP-02ff3EnU-1" value="Acheteur" style="shape=umlActor;verticalLabelPosition=bottom;verticalAlign=top;html=1;outlineConnect=0;" parent="1" vertex="1">
          <mxGeometry x="20" y="120" width="60" height="100" as="geometry" />
        </mxCell>
        <mxCell id="TAtsZx1FGTP-02ff3EnU-2" value="Patron" style="shape=umlActor;verticalLabelPosition=bottom;verticalAlign=top;html=1;outlineConnect=0;" parent="1" vertex="1">
          <mxGeometry x="10" y="400" width="60" height="100" as="geometry" />
        </mxCell>
        <mxCell id="TAtsZx1FGTP-02ff3EnU-7" value="Créer un compte&amp;nbsp;" style="ellipse;whiteSpace=wrap;html=1;aspect=fixed;" parent="1" vertex="1">
          <mxGeometry x="145" y="50" width="80" height="80" as="geometry" />
        </mxCell>
        <mxCell id="TAtsZx1FGTP-02ff3EnU-10" value="S&#39;authentifier" style="shape=process;whiteSpace=wrap;html=1;backgroundOutline=1;" parent="1" vertex="1">
          <mxGeometry x="210" y="200" width="120" height="60" as="geometry" />
        </mxCell>
        <mxCell id="TAtsZx1FGTP-02ff3EnU-20" value="Créer fiche détaillée" style="ellipse;whiteSpace=wrap;html=1;aspect=fixed;" parent="1" vertex="1">
          <mxGeometry x="280" y="470" width="80" height="80" as="geometry" />
        </mxCell>
        <mxCell id="TAtsZx1FGTP-02ff3EnU-27" value="" style="endArrow=none;html=1;rounded=0;exitX=0.5;exitY=0.5;exitDx=0;exitDy=0;exitPerimeter=0;entryX=-0.016;entryY=0.423;entryDx=0;entryDy=0;entryPerimeter=0;" parent="1" source="TAtsZx1FGTP-02ff3EnU-1" target="TAtsZx1FGTP-02ff3EnU-7" edge="1">
          <mxGeometry width="50" height="50" relative="1" as="geometry">
            <mxPoint x="190" y="60" as="sourcePoint" />
            <mxPoint x="240" y="10" as="targetPoint" />
          </mxGeometry>
        </mxCell>
        <mxCell id="TAtsZx1FGTP-02ff3EnU-45" value="" style="endArrow=none;html=1;rounded=0;exitX=0.5;exitY=0.5;exitDx=0;exitDy=0;exitPerimeter=0;entryX=0;entryY=0.25;entryDx=0;entryDy=0;" parent="1" source="TAtsZx1FGTP-02ff3EnU-1" target="TAtsZx1FGTP-02ff3EnU-10" edge="1">
          <mxGeometry width="50" height="50" relative="1" as="geometry">
            <mxPoint x="400" y="260" as="sourcePoint" />
            <mxPoint x="450" y="210" as="targetPoint" />
          </mxGeometry>
        </mxCell>
        <mxCell id="TAtsZx1FGTP-02ff3EnU-46" value="" style="endArrow=none;html=1;rounded=0;entryX=0.049;entryY=0.788;entryDx=0;entryDy=0;entryPerimeter=0;exitX=0.5;exitY=0.5;exitDx=0;exitDy=0;exitPerimeter=0;" parent="1" source="TAtsZx1FGTP-02ff3EnU-2" target="TAtsZx1FGTP-02ff3EnU-7" edge="1">
          <mxGeometry width="50" height="50" relative="1" as="geometry">
            <mxPoint x="290" y="230" as="sourcePoint" />
            <mxPoint x="270" y="110" as="targetPoint" />
          </mxGeometry>
        </mxCell>
        <mxCell id="TAtsZx1FGTP-02ff3EnU-47" value="" style="endArrow=none;html=1;rounded=0;exitX=0.5;exitY=0.5;exitDx=0;exitDy=0;exitPerimeter=0;entryX=0;entryY=1;entryDx=0;entryDy=0;" parent="1" source="TAtsZx1FGTP-02ff3EnU-2" target="TAtsZx1FGTP-02ff3EnU-10" edge="1">
          <mxGeometry width="50" height="50" relative="1" as="geometry">
            <mxPoint x="290" y="230" as="sourcePoint" />
            <mxPoint x="340" y="180" as="targetPoint" />
          </mxGeometry>
        </mxCell>
        <mxCell id="TAtsZx1FGTP-02ff3EnU-49" value="" style="endArrow=none;html=1;rounded=0;exitX=0.5;exitY=0.5;exitDx=0;exitDy=0;exitPerimeter=0;entryX=0;entryY=0.5;entryDx=0;entryDy=0;" parent="1" source="TAtsZx1FGTP-02ff3EnU-2" target="TAtsZx1FGTP-02ff3EnU-20" edge="1">
          <mxGeometry width="50" height="50" relative="1" as="geometry">
            <mxPoint x="290" y="230" as="sourcePoint" />
            <mxPoint x="340" y="180" as="targetPoint" />
          </mxGeometry>
        </mxCell>
        <mxCell id="TAtsZx1FGTP-02ff3EnU-50" value="" style="endArrow=classic;html=1;rounded=0;exitX=1;exitY=0.5;exitDx=0;exitDy=0;entryX=0;entryY=0.5;entryDx=0;entryDy=0;" parent="1" source="TAtsZx1FGTP-02ff3EnU-10" target="TAtsZx1FGTP-02ff3EnU-70" edge="1">
          <mxGeometry relative="1" as="geometry">
            <mxPoint x="407.84000000000015" y="163.60000000000014" as="sourcePoint" />
            <mxPoint x="410" y="200" as="targetPoint" />
          </mxGeometry>
        </mxCell>
        <mxCell id="TAtsZx1FGTP-02ff3EnU-51" value="Include" style="edgeLabel;resizable=0;html=1;align=center;verticalAlign=middle;" parent="TAtsZx1FGTP-02ff3EnU-50" connectable="0" vertex="1">
          <mxGeometry relative="1" as="geometry" />
        </mxCell>
        <mxCell id="TAtsZx1FGTP-02ff3EnU-53" value="Choisir une voiture dans la liste" style="ellipse;whiteSpace=wrap;html=1;" parent="1" vertex="1">
          <mxGeometry x="270" y="355" width="110" height="70" as="geometry" />
        </mxCell>
        <mxCell id="TAtsZx1FGTP-02ff3EnU-60" value="Accès à la fiche détaillée" style="shape=card;whiteSpace=wrap;html=1;" parent="1" vertex="1">
          <mxGeometry x="530" y="530" width="81.25" height="90" as="geometry" />
        </mxCell>
        <mxCell id="TAtsZx1FGTP-02ff3EnU-64" value="" style="endArrow=classic;html=1;rounded=0;exitX=0.497;exitY=-0.027;exitDx=0;exitDy=0;entryX=1;entryY=0.5;entryDx=0;entryDy=0;exitPerimeter=0;" parent="1" source="TAtsZx1FGTP-02ff3EnU-60" target="TAtsZx1FGTP-02ff3EnU-53" edge="1">
          <mxGeometry relative="1" as="geometry">
            <mxPoint x="561.25" y="310" as="sourcePoint" />
            <mxPoint x="561.255" y="360" as="targetPoint" />
            <Array as="points" />
          </mxGeometry>
        </mxCell>
        <mxCell id="TAtsZx1FGTP-02ff3EnU-65" value="Extend" style="edgeLabel;resizable=0;html=1;align=center;verticalAlign=middle;" parent="TAtsZx1FGTP-02ff3EnU-64" connectable="0" vertex="1">
          <mxGeometry relative="1" as="geometry">
            <mxPoint x="12" y="1" as="offset" />
          </mxGeometry>
        </mxCell>
        <mxCell id="TAtsZx1FGTP-02ff3EnU-67" value="Être connecté comme administrateur" style="ellipse;whiteSpace=wrap;html=1;" parent="1" vertex="1">
          <mxGeometry x="670" y="400" width="120" height="80" as="geometry" />
        </mxCell>
        <mxCell id="TAtsZx1FGTP-02ff3EnU-68" value="" style="endArrow=classic;html=1;rounded=0;entryX=1;entryY=0.5;entryDx=0;entryDy=0;entryPerimeter=0;" parent="1" source="TAtsZx1FGTP-02ff3EnU-67" target="TAtsZx1FGTP-02ff3EnU-60" edge="1">
          <mxGeometry relative="1" as="geometry">
            <mxPoint x="400" y="340" as="sourcePoint" />
            <mxPoint x="500" y="340" as="targetPoint" />
          </mxGeometry>
        </mxCell>
        <mxCell id="TAtsZx1FGTP-02ff3EnU-69" value="Include" style="edgeLabel;resizable=0;html=1;align=center;verticalAlign=middle;" parent="TAtsZx1FGTP-02ff3EnU-68" connectable="0" vertex="1">
          <mxGeometry relative="1" as="geometry" />
        </mxCell>
        <mxCell id="TAtsZx1FGTP-02ff3EnU-70" value="Achat en ligne" style="whiteSpace=wrap;html=1;aspect=fixed;" parent="1" vertex="1">
          <mxGeometry x="460" y="250" width="80" height="80" as="geometry" />
        </mxCell>
        <mxCell id="TAtsZx1FGTP-02ff3EnU-71" value="" style="endArrow=classic;html=1;rounded=0;entryX=1;entryY=0.5;entryDx=0;entryDy=0;exitX=0;exitY=0.5;exitDx=0;exitDy=0;" parent="1" source="TAtsZx1FGTP-02ff3EnU-70" target="TAtsZx1FGTP-02ff3EnU-53" edge="1">
          <mxGeometry relative="1" as="geometry">
            <mxPoint x="420" y="310" as="sourcePoint" />
            <mxPoint x="580" y="310" as="targetPoint" />
          </mxGeometry>
        </mxCell>
        <mxCell id="TAtsZx1FGTP-02ff3EnU-72" value="Extend" style="edgeLabel;resizable=0;html=1;align=center;verticalAlign=middle;" parent="TAtsZx1FGTP-02ff3EnU-71" connectable="0" vertex="1">
          <mxGeometry relative="1" as="geometry" />
        </mxCell>
        <mxCell id="TAtsZx1FGTP-02ff3EnU-74" style="edgeStyle=orthogonalEdgeStyle;rounded=0;orthogonalLoop=1;jettySize=auto;html=1;exitX=0.5;exitY=1;exitDx=0;exitDy=0;" parent="1" source="TAtsZx1FGTP-02ff3EnU-20" target="TAtsZx1FGTP-02ff3EnU-20" edge="1">
          <mxGeometry relative="1" as="geometry" />
        </mxCell>
        <mxCell id="TAtsZx1FGTP-02ff3EnU-75" value="Choisir mode payment" style="shape=note;whiteSpace=wrap;html=1;backgroundOutline=1;darkOpacity=0.05;" parent="1" vertex="1">
          <mxGeometry x="640" y="260" width="80" height="100" as="geometry" />
        </mxCell>
        <mxCell id="TAtsZx1FGTP-02ff3EnU-79" value="" style="endArrow=classic;html=1;rounded=0;entryX=0;entryY=0.5;entryDx=0;entryDy=0;entryPerimeter=0;exitX=1;exitY=0.5;exitDx=0;exitDy=0;" parent="1" source="TAtsZx1FGTP-02ff3EnU-70" target="TAtsZx1FGTP-02ff3EnU-75" edge="1">
          <mxGeometry relative="1" as="geometry">
            <mxPoint x="620" y="240" as="sourcePoint" />
            <mxPoint x="520" y="290" as="targetPoint" />
          </mxGeometry>
        </mxCell>
        <mxCell id="TAtsZx1FGTP-02ff3EnU-80" value="Include" style="edgeLabel;resizable=0;html=1;align=center;verticalAlign=middle;" parent="TAtsZx1FGTP-02ff3EnU-79" connectable="0" vertex="1">
          <mxGeometry relative="1" as="geometry" />
        </mxCell>
        <mxCell id="TAtsZx1FGTP-02ff3EnU-82" value="Transfer paypal" style="ellipse;whiteSpace=wrap;html=1;" parent="1" vertex="1">
          <mxGeometry x="550" y="100" width="100" height="70" as="geometry" />
        </mxCell>
        <mxCell id="TAtsZx1FGTP-02ff3EnU-83" value="" style="endArrow=none;html=1;rounded=0;exitX=0.5;exitY=0.5;exitDx=0;exitDy=0;exitPerimeter=0;" parent="1" source="TAtsZx1FGTP-02ff3EnU-1" edge="1">
          <mxGeometry width="50" height="50" relative="1" as="geometry">
            <mxPoint x="160" y="250" as="sourcePoint" />
            <mxPoint x="270" y="390" as="targetPoint" />
          </mxGeometry>
        </mxCell>
        <mxCell id="TAtsZx1FGTP-02ff3EnU-84" value="" style="endArrow=none;html=1;rounded=0;entryX=0;entryY=0.5;entryDx=0;entryDy=0;exitX=0.5;exitY=0.5;exitDx=0;exitDy=0;exitPerimeter=0;" parent="1" source="TAtsZx1FGTP-02ff3EnU-2" target="TAtsZx1FGTP-02ff3EnU-53" edge="1">
          <mxGeometry width="50" height="50" relative="1" as="geometry">
            <mxPoint x="90" y="119" as="sourcePoint" />
            <mxPoint x="361" y="287" as="targetPoint" />
          </mxGeometry>
        </mxCell>
        <mxCell id="TAtsZx1FGTP-02ff3EnU-85" value="Appliquer pret au banque" style="ellipse;whiteSpace=wrap;html=1;" parent="1" vertex="1">
          <mxGeometry x="720" y="100" width="100" height="70" as="geometry" />
        </mxCell>
        <mxCell id="TAtsZx1FGTP-02ff3EnU-86" value="" style="endArrow=classic;html=1;rounded=0;exitX=0.5;exitY=1;exitDx=0;exitDy=0;entryX=0.433;entryY=0.022;entryDx=0;entryDy=0;entryPerimeter=0;" parent="1" source="TAtsZx1FGTP-02ff3EnU-82" target="TAtsZx1FGTP-02ff3EnU-75" edge="1">
          <mxGeometry relative="1" as="geometry">
            <mxPoint x="480" y="200" as="sourcePoint" />
            <mxPoint x="580" y="200" as="targetPoint" />
          </mxGeometry>
        </mxCell>
        <mxCell id="TAtsZx1FGTP-02ff3EnU-87" value="Extend" style="edgeLabel;resizable=0;html=1;align=center;verticalAlign=middle;" parent="TAtsZx1FGTP-02ff3EnU-86" connectable="0" vertex="1">
          <mxGeometry relative="1" as="geometry" />
        </mxCell>
        <mxCell id="TAtsZx1FGTP-02ff3EnU-88" value="" style="endArrow=classic;html=1;rounded=0;exitX=0.315;exitY=0.987;exitDx=0;exitDy=0;entryX=0.5;entryY=0;entryDx=0;entryDy=0;entryPerimeter=0;exitPerimeter=0;" parent="1" source="TAtsZx1FGTP-02ff3EnU-85" target="TAtsZx1FGTP-02ff3EnU-75" edge="1">
          <mxGeometry relative="1" as="geometry">
            <mxPoint x="570" y="120" as="sourcePoint" />
            <mxPoint x="605" y="167" as="targetPoint" />
          </mxGeometry>
        </mxCell>
        <mxCell id="TAtsZx1FGTP-02ff3EnU-89" value="Extend" style="edgeLabel;resizable=0;html=1;align=center;verticalAlign=middle;" parent="TAtsZx1FGTP-02ff3EnU-88" connectable="0" vertex="1">
          <mxGeometry relative="1" as="geometry" />
        </mxCell>
        <mxCell id="TAtsZx1FGTP-02ff3EnU-90" value="System du banque en ligne" style="rounded=1;whiteSpace=wrap;html=1;" parent="1" vertex="1">
          <mxGeometry x="800" y="200" width="120" height="60" as="geometry" />
        </mxCell>
        <mxCell id="TAtsZx1FGTP-02ff3EnU-91" value="Banque" style="shape=umlActor;verticalLabelPosition=bottom;verticalAlign=top;html=1;outlineConnect=0;" parent="1" vertex="1">
          <mxGeometry x="980" y="180" width="60" height="120" as="geometry" />
        </mxCell>
        <mxCell id="TAtsZx1FGTP-02ff3EnU-92" value="" style="endArrow=none;html=1;rounded=0;exitX=0.754;exitY=0.906;exitDx=0;exitDy=0;exitPerimeter=0;entryX=0.5;entryY=0;entryDx=0;entryDy=0;" parent="1" source="TAtsZx1FGTP-02ff3EnU-85" target="TAtsZx1FGTP-02ff3EnU-90" edge="1">
          <mxGeometry width="50" height="50" relative="1" as="geometry">
            <mxPoint x="610" y="230" as="sourcePoint" />
            <mxPoint x="660" y="180" as="targetPoint" />
          </mxGeometry>
        </mxCell>
        <mxCell id="TAtsZx1FGTP-02ff3EnU-93" value="" style="endArrow=none;html=1;rounded=0;exitX=1;exitY=0.5;exitDx=0;exitDy=0;entryX=0.5;entryY=0.5;entryDx=0;entryDy=0;entryPerimeter=0;" parent="1" source="TAtsZx1FGTP-02ff3EnU-90" target="TAtsZx1FGTP-02ff3EnU-91" edge="1">
          <mxGeometry width="50" height="50" relative="1" as="geometry">
            <mxPoint x="760" y="173" as="sourcePoint" />
            <mxPoint x="795" y="210" as="targetPoint" />
          </mxGeometry>
        </mxCell>
        <mxCell id="TAtsZx1FGTP-02ff3EnU-94" value="" style="endArrow=classic;html=1;rounded=0;entryX=0.75;entryY=0;entryDx=0;entryDy=0;exitX=0.628;exitY=0.986;exitDx=0;exitDy=0;exitPerimeter=0;" parent="1" source="TAtsZx1FGTP-02ff3EnU-7" target="TAtsZx1FGTP-02ff3EnU-10" edge="1">
          <mxGeometry relative="1" as="geometry">
            <mxPoint x="210" y="170" as="sourcePoint" />
            <mxPoint x="198" y="131" as="targetPoint" />
          </mxGeometry>
        </mxCell>
        <mxCell id="TAtsZx1FGTP-02ff3EnU-95" value="Include" style="edgeLabel;resizable=0;html=1;align=center;verticalAlign=middle;" parent="TAtsZx1FGTP-02ff3EnU-94" connectable="0" vertex="1">
          <mxGeometry relative="1" as="geometry" />
        </mxCell>
        <mxCell id="TAtsZx1FGTP-02ff3EnU-99" value="" style="endArrow=none;html=1;rounded=0;entryX=0.003;entryY=0.584;entryDx=0;entryDy=0;entryPerimeter=0;exitX=0.5;exitY=0.5;exitDx=0;exitDy=0;exitPerimeter=0;" parent="1" target="TAtsZx1FGTP-02ff3EnU-60" edge="1" source="TAtsZx1FGTP-02ff3EnU-2">
          <mxGeometry width="50" height="50" relative="1" as="geometry">
            <mxPoint x="50" y="390" as="sourcePoint" />
            <mxPoint x="340" y="400" as="targetPoint" />
            <Array as="points">
              <mxPoint x="210" y="600" />
            </Array>
          </mxGeometry>
        </mxCell>
      </root>
    </mxGraphModel>
  </diagram>
</mxfile>
